<svg viewBox="0 0 512 512" xmlns="http://www.w3.org/2000/svg"><path d="m512 51.136719-21.214844-21.214844-29.433594 29.433594h-49.652343v30h49.65625l29.429687 29.433593 21.214844-21.210937-23.222656-23.222656zm0 0" fill="#ff4a4a"/><path d="m256.132812 116.941406c13.445313 19.203125 35.71875 31.773438 60.941407 31.773438h35.523437c41.0625 0 74.355469-33.292969 74.355469-74.359375 0-41.066407-33.292969-74.355469-74.355469-74.355469h-35.523437c-25.304688 0-47.644531 12.648438-61.074219 31.960938l-20.015625 42.394531 20.015625 42.585937zm0 0" fill="#00884f"/><path d="m370.746094 229.492188h-114.746094l-20.015625 42.84375 20.015625 42.132812h114.746094c31.320312 0 56.746094 25.722656 56.269531 57.148438-.472656 30.878906-26.242187 55.402343-57.125 55.402343h-113.890625l-20.015625 47.3125 20.015625 37.667969h113.191406c77.945313 0 142.359375-62.484375 142.804688-140.429688.449218-78.265624-63.085938-142.078124-141.25-142.078124zm0 0" fill="#00884f"/><g fill="#00cc76"><path d="m42.488281 427.019531c-23.464843 0-42.488281 19.023438-42.488281 42.492188 0 23.464843 19.023438 42.488281 42.488281 42.488281h213.511719v-84.980469zm0 0"/><path d="m141.253906 229.492188c-31.320312 0-56.746094-25.722657-56.269531-57.148438.472656-30.878906 26.242187-55.402344 57.125-55.402344h113.890625v-84.980468h-114.746094c-78.160156 0-141.699218 63.816406-141.24999975 142.078124.44531275 77.945313 64.85937475 140.429688 142.80468775 140.429688h113.191406v-84.976562zm0 0"/></g></svg>